<?xml version="1.0" encoding="UTF-8" standalone="no"?>
<svg
   xmlns:dc="http://purl.org/dc/elements/1.1/"
   xmlns:cc="http://creativecommons.org/ns#"
   xmlns:rdf="http://www.w3.org/1999/02/22-rdf-syntax-ns#"
   xmlns:svg="http://www.w3.org/2000/svg"
   xmlns="http://www.w3.org/2000/svg"
   xmlns:sodipodi="http://sodipodi.sourceforge.net/DTD/sodipodi-0.dtd"
   xmlns:inkscape="http://www.inkscape.org/namespaces/inkscape"
   viewBox="0 0 492.39999 195.39999"
   enable-background="new 0 0 504 203"
   id="svg2"
   version="1.1"
   inkscape:version="0.91 r13725"
   sodipodi:docname="mark.svg"
   width="492.39999"
   height="195.39999">
  <metadata
     id="metadata12">
    <rdf:RDF>
      <cc:Work
         rdf:about="">
        <dc:format>image/svg+xml</dc:format>
        <dc:type
           rdf:resource="http://purl.org/dc/dcmitype/StillImage" />
      </cc:Work>
    </rdf:RDF>
  </metadata>
  <defs
     id="defs10" />
  <sodipodi:namedview
     pagecolor="#ffffff"
     bordercolor="#666666"
     borderopacity="1"
     objecttolerance="10"
     gridtolerance="10"
     guidetolerance="10"
     inkscape:pageopacity="0"
     inkscape:pageshadow="2"
     inkscape:window-width="640"
     inkscape:window-height="480"
     id="namedview8"
     showgrid="false"
     inkscape:zoom="0.66269841"
     inkscape:cx="245.8"
     inkscape:cy="97.4"
     inkscape:window-x="0"
     inkscape:window-y="22"
     inkscape:window-maximized="0"
     inkscape:current-layer="svg2" />
  <style
     type="text/css"
     id="style4">
        .st0{fill:rgb(35,35,35);}
        svg{background:white;}
    </style>
  <path
     class="st0"
     d="m 99.5,191.5 41.5,0 41.9,-113.2 0.4,0 0,113.2 56.7,0 0,-187.6 -78.7,0 L 121.4,117.5 79.5,3.9 0,3.9 l 0,187.6 56.4,0 0,-113.2 0.4,0 z m 153.9,-115.9 58,0 0,116 -58,0 z M 432.9,121 c 0,20 -16.1,30.6 -32.1,30.6 -11.4,0 -20.4,-4.7 -20.4,-16.5 0,-10.2 6.7,-17.2 20.4,-19.6 l 32.1,-5.5 0,11 z m 59.5,70.5 0,-120.6 C 492.4,18.8 455.6,0 410.5,0 358.8,0 327.8,27.4 325.1,63.1 l 59.2,0 c 1.2,-9.8 10.2,-18.4 25.5,-18.4 15.3,0 23.1,7.8 23.1,20.8 l 0,5 -45.1,5.8 c -40.4,5.1 -67.4,21.5 -67.4,63.1 0,36.4 23.9,56 61.1,56 26.2,0 42.3,-10.6 52.5,-27.8 l 0.8,23.9 57.6,0 z m -239,-187.6 58,0 0,59.2 -58,0 z"
     id="path6"
     inkscape:connector-curvature="0"
     style="fill:#232323" />
</svg>
